<svg width="170" height="48" viewBox="0 0 170 48" fill="none" xmlns="http://www.w3.org/2000/svg">
<g clip-path="url(#clip0_1_1056)">
<path d="M77.3836 41.8977L76.8516 43.3164C76.696 43.7326 76.1097 43.7434 75.936 43.3345L72.469 35.1155C72.2989 34.7102 72.7006 34.3049 73.1059 34.4677L81.5093 37.8769C81.9327 38.047 81.9146 38.6514 81.4839 38.7998L79.8337 39.3643" fill="white"/>
<path d="M77.5942 36.9549C81.4991 41.001 87.0797 43.643 93.3659 43.8999C100.893 44.2075 106.963 40.9576 111.291 35.8293C111.913 35.091 113.061 35.9488 112.511 36.7413C107.998 43.2629 99.663 47.3417 91.1474 46.9906C84.5355 46.7192 78.6582 43.795 74.4999 39.2856" fill="white"/>
<path d="M107.705 6.09849L108.237 4.67981C108.393 4.26362 108.979 4.25276 109.153 4.66172L112.62 12.8807C112.79 13.286 112.388 13.6913 111.983 13.5285L103.58 10.1193C103.156 9.94921 103.174 9.34482 103.605 9.19644L105.255 8.63186" fill="white"/>
<path d="M107.494 11.0392C103.589 6.99307 98.0084 4.35113 91.7222 4.09418C84.1946 3.78655 78.1255 7.0365 73.7971 12.1647C73.1747 12.903 72.0274 12.0453 72.5775 11.2527C77.0868 4.73114 85.4251 0.652422 93.937 1.00347C100.549 1.27491 106.426 4.19913 110.585 8.70852" fill="white"/>
<path d="M112.7 21.7867C112.306 21.6058 111.817 21.5153 111.228 21.5153C109.476 21.5153 108.6 22.7458 108.6 25.2104V31.627H104.341V18.3595L108.441 17.7116V19.9084C108.64 19.304 109.024 18.7612 109.595 18.2762C110.261 17.7189 110.978 17.4366 111.749 17.4366H112.7V21.7903V21.7867Z" fill="white"/>
<path d="M76.38 24.1654C74.1145 23.1376 72.9782 21.4692 72.9782 19.1566C72.9782 17.4955 73.5898 16.1419 74.813 15.0996C75.9458 14.1152 77.321 13.6266 78.9387 13.6266C80.7518 13.6266 82.6048 14.2455 84.4939 15.4869L82.7242 18.8888C81.4394 17.9659 80.2777 17.5063 79.2355 17.5063C78.0701 17.5063 77.4911 18.013 77.4911 19.0263C77.4911 19.4353 77.7082 19.7755 78.1497 20.0469C78.3452 20.1663 78.7831 20.3582 79.4635 20.6115C79.5829 20.6585 80.2126 20.9083 81.3453 21.3606C83.9728 22.4174 85.2901 24.1654 85.2901 26.5938C85.2901 28.36 84.5735 29.7678 83.1368 30.8101C81.8194 31.7764 80.2271 32.2613 78.3524 32.2613C77.2486 32.2613 76.1774 32.0406 75.1315 31.6027C74.4366 31.3312 73.5138 30.8318 72.3665 30.108C72.8479 29.1562 73.4559 27.9836 74.1797 26.5938C75.4355 27.7121 76.7926 28.2731 78.2583 28.2731C78.9532 28.2731 79.5467 28.1573 80.0389 27.9221C80.5311 27.6904 80.7772 27.3539 80.7772 26.9159C80.7772 26.5215 80.6867 26.2283 80.5057 26.0329C80.2777 25.7904 79.7638 25.519 78.964 25.215C77.8747 24.806 77.017 24.4586 76.38 24.1727V24.1654Z" fill="white"/>
<path d="M94.4338 32.0977C92.3347 32.0977 90.5542 31.363 89.0957 29.8973C87.6372 28.4315 86.9098 26.7125 86.9098 24.7292C86.9098 22.6446 87.6409 20.9038 89.1066 19.5141C90.5723 18.1244 92.3782 17.4295 94.5242 17.4295C96.6703 17.4295 98.4364 18.1135 99.8732 19.4815C101.31 20.8495 102.026 22.5759 102.026 24.6604C102.026 26.745 101.332 28.5727 99.9419 29.9624C98.5052 31.3811 96.6703 32.0941 94.4338 32.0941V32.0977ZM97.8357 24.5953C97.8357 23.6869 97.5208 22.9305 96.8947 22.3153C96.2686 21.7036 95.4724 21.396 94.5025 21.396C93.5326 21.396 92.693 21.7217 92.0669 22.3696C91.4408 23.021 91.126 23.8281 91.126 24.7944C91.126 25.7606 91.4481 26.517 92.0886 27.154C92.7292 27.7873 93.5254 28.1058 94.4808 28.1058C95.5231 28.1058 96.3446 27.791 96.9418 27.1649C97.5389 26.5388 97.8357 25.6774 97.8357 24.5917V24.5953Z" fill="white"/>
<path d="M10.3296 31.6306L4.52829 24.0377V31.6306H-0.00634766V14.2662H4.52467V21.6564L9.60216 14.2662H14.9981L8.78788 22.4706L16.1779 31.6269H10.3296V31.6306Z" fill="white"/>
<path d="M22.2025 17.7156V31.6347H17.9863V18.3671L22.2025 17.7193V17.7156Z" fill="white"/>
<path d="M29.9932 21.4542H25.0966V17.7156H36.7933L31.0608 27.9142H36.5219V31.631H24.2136L29.9932 21.4542Z" fill="white"/>
<path d="M42.9447 14.2662V31.6306H38.7285V14.914L42.9447 14.2662Z" fill="white"/>
<path d="M51.8239 31.9653C49.8732 31.9653 48.299 31.3139 47.0974 30.0037C45.8959 28.6973 45.2952 26.942 45.2952 24.7343C45.2952 22.7547 45.943 21.0429 47.2422 19.5989C48.5414 18.1548 50.1447 17.4346 52.0483 17.4346C53.485 17.4346 54.8204 18.0028 56.0618 19.1356V17.7061L60.2309 17.0583V31.6251H55.993V30.2643C54.8602 31.3971 53.4669 31.9653 51.8239 31.9653ZM56.1993 24.7814C56.1993 23.7717 55.8808 22.9429 55.2475 22.2987C54.6142 21.6581 53.8288 21.336 52.8915 21.336C51.9071 21.336 51.1109 21.6581 50.4993 22.2987C49.8877 22.9429 49.5837 23.7319 49.5837 24.6692C49.5837 25.6645 49.8696 26.4896 50.445 27.141C51.0349 27.8359 51.8058 28.1833 52.7576 28.1833C53.7094 28.1833 54.5418 27.8685 55.2041 27.2315C55.87 26.5982 56.2029 25.7803 56.2029 24.785L56.1993 24.7814Z" fill="white"/>
<path d="M71.616 21.7972C71.2215 21.6162 70.7329 21.5257 70.143 21.5257C68.3914 21.5257 67.5156 22.7562 67.5156 25.2208V31.6375H63.256V18.3699L67.3564 17.7221V19.9189C67.5554 19.3145 67.939 18.7716 68.5109 18.2867C69.1768 17.7293 69.8933 17.447 70.6642 17.447H71.616V21.8008V21.7972Z" fill="white"/>
<path d="M169.991 21.7991C169.597 21.6181 169.108 21.5276 168.518 21.5276C166.767 21.5276 165.891 22.7581 165.891 25.2227V31.6394H161.631V18.3718L165.732 17.724V19.9208C165.931 19.3164 166.314 18.7735 166.886 18.2885C167.552 17.7312 168.269 17.4489 169.04 17.4489H169.991V21.8027V21.7991Z" fill="white"/>
<path d="M114.206 25.8098V18.3653L118.422 17.7175V25.694C118.422 26.4504 118.636 27.0403 119.066 27.4601C119.497 27.8836 120.072 28.0971 120.8 28.0971C121.527 28.0971 122.139 27.8908 122.544 27.4855C122.953 27.0765 123.156 26.5192 123.156 25.8098V18.3653L127.281 17.7175V25.9691C127.281 27.8872 126.699 29.371 125.537 30.4097C124.372 31.452 122.779 31.9731 120.753 31.9731C118.726 31.9731 117.148 31.4266 115.972 30.3301C114.792 29.2335 114.206 27.7279 114.206 25.8062V25.8098Z" fill="white"/>
<path d="M134.5 29.7763L128.901 17.7175H133.591L136.628 24.9014L139.552 17.7175H143.927L135.835 36.5549H131.369L134.496 29.7763H134.5Z" fill="white"/>
<path d="M151.721 32.11C149.622 32.11 147.842 31.3754 146.383 29.9096C144.925 28.4439 144.197 26.7248 144.197 24.7416C144.197 22.657 144.928 20.9162 146.394 19.5265C147.86 18.1367 149.666 17.4419 151.812 17.4419C153.958 17.4419 155.724 18.1259 157.16 19.4939C158.597 20.8619 159.314 22.5882 159.314 24.6728C159.314 26.7574 158.619 28.585 157.229 29.9748C155.793 31.3935 153.958 32.1064 151.721 32.1064V32.11ZM155.123 24.6077C155.123 23.6993 154.808 22.9429 154.182 22.3276C153.556 21.716 152.76 21.4084 151.79 21.4084C150.82 21.4084 149.98 21.7341 149.354 22.3819C148.728 23.0334 148.413 23.8404 148.413 24.8067C148.413 25.773 148.735 26.5294 149.376 27.1664C150.017 27.7997 150.813 28.1182 151.768 28.1182C152.81 28.1182 153.632 27.8033 154.229 27.1772C154.826 26.5511 155.123 25.6898 155.123 24.604V24.6077Z" fill="white"/>
</g>
<defs>
<clipPath id="clip0_1_1056">
<rect width="170" height="46.0276" fill="white" transform="translate(0 0.986206)"/>
</clipPath>
</defs>
</svg>
