<svg width="22" height="22" viewBox="0 0 22 22" fill="none" xmlns="http://www.w3.org/2000/svg">
<path d="M21.2129 18.7949C21.582 19.2051 21.582 19.8203 21.1719 20.1895L20.0234 21.3379C19.6543 21.748 19.0391 21.748 18.6289 21.3379L14.5684 17.2773C14.3633 17.0723 14.2812 16.8262 14.2812 16.5801V15.8828C12.8047 17.0312 11 17.6875 9.03125 17.6875C4.31445 17.6875 0.5 13.873 0.5 9.15625C0.5 4.48047 4.31445 0.625 9.03125 0.625C13.707 0.625 17.5625 4.48047 17.5625 9.15625C17.5625 11.166 16.8652 12.9707 15.7578 14.4062H16.4141C16.6602 14.4062 16.9062 14.5293 17.1113 14.6934L21.2129 18.7949ZM9.03125 14.4062C11.9023 14.4062 14.2812 12.0684 14.2812 9.15625C14.2812 6.28516 11.9023 3.90625 9.03125 3.90625C6.11914 3.90625 3.78125 6.28516 3.78125 9.15625C3.78125 12.0684 6.11914 14.4062 9.03125 14.4062Z" fill="#344D5E"/>
</svg>
